<svg xmlns="http://www.w3.org/2000/svg" viewBox="0 0 96 96">
  <g transform="translate(-118 -33) scale(.4363)">
    <circle r="107.7" cy="184.7" cx="380.5" fill="#16347b"/>
    <circle r="8.7" cy="90.8" cx="370" stroke-miterlimit="10" fill="#b3cce2" stroke="#000" stroke-width=".5"/>
    <circle r="8.7" cy="91.9" cx="397.9" stroke-miterlimit="10" fill="#b3cce2" stroke="#000" stroke-width=".5"/>
    <circle r="8.7" cy="100.3" cx="424.7" stroke-miterlimit="10" fill="#b3cce2" stroke="#000" stroke-width=".5"/>
    <circle r="8.7" cy="115.9" cx="444.8" stroke-miterlimit="10" fill="#b3cce2" stroke="#000" stroke-width=".5"/>
    <path d="M464 138a7 7 0 11-7-12 7 7 0 017 12zM475 158a7 7 0 11-7-12 7 7 0 017 12z" stroke-miterlimit="10" fill="#b3cce2" stroke="#000" stroke-width=".5"/>
    <circle r="7" cy="173.6" cx="477.4" stroke-miterlimit="10" fill="#b3cce2" stroke="#000" stroke-width=".5"/>
    <circle r="7" cy="193.5" cx="477.9" stroke-miterlimit="10" fill="#b3cce2" stroke="#000" stroke-width=".5"/>
    <path d="M301 134a7 7 0 11-7 12 7 7 0 017-12zM316 116a7 7 0 11-7 12 7 7 0 017-12zM333 101a7 7 0 11-7 12 7 7 0 017-12z" stroke-miterlimit="10" fill="#b3cce2" stroke="#000" stroke-width=".5"/>
    <circle r="7" cy="96.9" cx="346.5" stroke-miterlimit="10" fill="#b3cce2" stroke="#000" stroke-width=".5"/>
    <circle r="4.8" cy="210.2" cx="475.5" stroke-miterlimit="10" fill="#b3cce2" stroke="#000" stroke-width=".5"/>
    <path d="M470 228a5 5 0 113-8 5 5 0 01-3 8zM463 240a5 5 0 114-8 5 5 0 01-4 8zM455 252a5 5 0 113-9 5 5 0 01-3 9zM286 193a5 5 0 11-1 9 5 5 0 011-9z" stroke-miterlimit="10" fill="#b3cce2" stroke="#000" stroke-width=".5"/>
    <circle r="4.7" cy="183.4" cx="284" stroke-miterlimit="10" fill="#b3cce2" stroke="#000" stroke-width=".5"/>
    <circle r="4.8" cy="169.6" cx="286" stroke-miterlimit="10" fill="#b3cce2" stroke="#000" stroke-width=".5"/>
    <circle r="4.8" cy="156.2" cx="289.4" stroke-miterlimit="10" fill="#b3cce2" stroke="#000" stroke-width=".5"/>
    <circle r="7" cy="121.9" cx="421.6" stroke-miterlimit="10" fill="#b3cce2" stroke="#000" stroke-width=".5"/>
    <circle r="7" cy="136.7" cx="438.9" stroke-miterlimit="10" fill="#b3cce2" stroke="#000" stroke-width=".5"/>
    <circle r="7" cy="155.6" cx="451.7" stroke-miterlimit="10" fill="#b3cce2" stroke="#000" stroke-width=".5"/>
    <circle r="7" cy="175.7" cx="456.6" stroke-miterlimit="10" fill="#b3cce2" stroke="#000" stroke-width=".5"/>
    <path d="M458 200a6 6 0 111-12 6 6 0 01-1 12zM455 218a6 6 0 111-12 6 6 0 01-1 12zM448 235a6 6 0 111-12 6 6 0 01-1 12zM438 248a6 6 0 111-12 6 6 0 01-1 12z" stroke-miterlimit="10" fill="#b3cce2" stroke="#000" stroke-width=".5"/>
    <circle r="5.7" cy="116.5" cx="350.6" stroke-miterlimit="10" fill="#b3cce2" stroke="#000" stroke-width=".5"/>
    <path d="M374 111a6 6 0 11-10 4 6 6 0 0110-4zM393 109a6 6 0 11-11 4 6 6 0 0111-4zM409 112a6 6 0 11-11 4 6 6 0 0111-4zM425 253a4 4 0 117-3 4 4 0 01-7 3zM416 260a4 4 0 116-4 4 4 0 01-6 4z" stroke-miterlimit="10" fill="#b3cce2" stroke="#000" stroke-width=".5"/>
    <circle r="3.9" cy="262.4" cx="408.5" stroke-miterlimit="10" fill="#b3cce2" stroke="#000" stroke-width=".5"/>
    <circle r="3.9" cy="265.5" cx="397.6" stroke-miterlimit="10" fill="#b3cce2" stroke="#000" stroke-width=".5"/>
    <circle r="3.9" cy="147.2" cx="313.6" stroke-miterlimit="10" fill="#b3cce2" stroke="#000" stroke-width=".5"/>
    <path d="M322 135a4 4 0 11-5 5 4 4 0 015-5zM331 127a4 4 0 11-5 6 4 4 0 015-6z" stroke-miterlimit="10" fill="#b3cce2" stroke="#000" stroke-width=".5"/>
    <circle r="3.9" cy="122.8" cx="337.2" stroke-miterlimit="10" fill="#b3cce2" stroke="#000" stroke-width=".5"/>
    <circle r="5.7" cy="153.5" cx="430.5" stroke-miterlimit="10" fill="#b3cce2" stroke="#000" stroke-width=".5"/>
    <path d="M441 175a6 6 0 11-5-10 6 6 0 015 10zM444 194a6 6 0 11-5-11 6 6 0 015 11zM441 210a6 6 0 11-5-10 6 6 0 015 10zM432 223a5 5 0 114-8 5 5 0 01-4 8zM423 236a5 5 0 115-8 5 5 0 01-5 8z" stroke-miterlimit="10" fill="#b3cce2" stroke="#000" stroke-width=".5"/>
    <circle r="4.6" cy="241.8" cx="414.6" stroke-miterlimit="10" fill="#b3cce2" stroke="#000" stroke-width=".5"/>
    <path d="M401 252a5 5 0 114-8 5 5 0 01-4 8z" stroke-miterlimit="10" fill="#b3cce2" stroke="#000" stroke-width=".5"/>
    <circle r="4.6" cy="125.9" cx="379.5" stroke-miterlimit="10" fill="#b3cce2" stroke="#000" stroke-width=".5"/>
    <circle r="4.6" cy="129.2" cx="394.6" stroke-miterlimit="10" fill="#b3cce2" stroke="#000" stroke-width=".5"/>
    <circle r="4.6" cy="134.4" cx="408.7" stroke-miterlimit="10" fill="#b3cce2" stroke="#000" stroke-width=".5"/>
    <path d="M424 142a5 5 0 11-9-1 5 5 0 019 1zM389 252a3 3 0 117 0 3 3 0 01-7 0zM380 254a3 3 0 116 0 3 3 0 01-6 0z" stroke-miterlimit="10" fill="#b3cce2" stroke="#000" stroke-width=".5"/>
    <circle r="3.1" cy="253.5" cx="374" stroke-miterlimit="10" fill="#b3cce2" stroke="#000" stroke-width=".5"/>
    <circle r="3.1" cy="252.2" cx="364.9" stroke-miterlimit="10" fill="#b3cce2" stroke="#000" stroke-width=".5"/>
    <circle r="3.1" cy="136.4" cx="341.9" stroke-miterlimit="10" fill="#b3cce2" stroke="#000" stroke-width=".5"/>
    <circle r="3.1" cy="131.3" cx="349.8" stroke-miterlimit="10" fill="#b3cce2" stroke="#000" stroke-width=".5"/>
    <circle r="3.1" cy="128.2" cx="358.5" stroke-miterlimit="10" fill="#b3cce2" stroke="#000" stroke-width=".5"/>
    <circle r="3.1" cy="126.1" cx="367.5" stroke-miterlimit="10" fill="#b3cce2" stroke="#000" stroke-width=".5"/>
    <path d="M427 198a5 5 0 112-9 5 5 0 01-2 9zM424 213a5 5 0 111-10 5 5 0 01-1 10zM416 226a5 5 0 112-9 5 5 0 01-2 9z" stroke-miterlimit="10" fill="#b3cce2" stroke="#000" stroke-width=".5"/>
    <circle r="4.7" cy="230.3" cx="407.1" stroke-miterlimit="10" fill="#b3cce2" stroke="#000" stroke-width=".5"/>
    <circle r="3.8" cy="237.1" cx="396.9" stroke-miterlimit="10" fill="#b3cce2" stroke="#000" stroke-width=".5"/>
    <path d="M382 242a4 4 0 117-2 4 4 0 01-7 2zM370 243a4 4 0 117-3 4 4 0 01-7 3zM359 241a4 4 0 117-2 4 4 0 01-7 2z" stroke-miterlimit="10" fill="#b3cce2" stroke="#000" stroke-width=".5"/>
    <circle r="3.8" cy="149.9" cx="409.5" stroke-miterlimit="10" fill="#b3cce2" stroke="#000" stroke-width=".5"/>
    <circle r="3.8" cy="159.7" cx="417.4" stroke-miterlimit="10" fill="#b3cce2" stroke="#000" stroke-width=".5"/>
    <circle r="3.8" cy="170.1" cx="423.8" stroke-miterlimit="10" fill="#b3cce2" stroke="#000" stroke-width=".5"/>
    <circle r="3.8" cy="180.3" cx="427.2" stroke-miterlimit="10" fill="#b3cce2" stroke="#000" stroke-width=".5"/>
    <circle r="2.6" cy="236.9" cx="354" stroke-miterlimit="10" fill="#b3cce2" stroke="#000" stroke-width=".5"/>
    <circle r="2.6" cy="233.4" cx="347.2" stroke-miterlimit="10" fill="#b3cce2" stroke="#000" stroke-width=".5"/>
    <path d="M339 227a3 3 0 115 3 3 3 0 01-5-3zM334 222a3 3 0 114 3 3 3 0 01-4-3z" stroke-miterlimit="10" fill="#b3cce2" stroke="#000" stroke-width=".5"/>
    <circle r="2.6" cy="137.6" cx="380.1" stroke-miterlimit="10" fill="#b3cce2" stroke="#000" stroke-width=".5"/>
    <path d="M390 139a3 3 0 11-5-1 3 3 0 015 1zM397 141a3 3 0 11-5-1 3 3 0 015 1z" stroke-miterlimit="10" fill="#b3cce2" stroke="#000" stroke-width=".5"/>
    <circle r="2.6" cy="144" cx="401.7" stroke-miterlimit="10" fill="#b3cce2" stroke="#000" stroke-width=".5"/>
    <circle r="3.9" cy="199.9" cx="413.1" stroke-miterlimit="10" fill="#b3cce2" stroke="#000" stroke-width=".5"/>
    <path d="M406 214a4 4 0 113-7 4 4 0 01-3 7zM397 224a4 4 0 113-7 4 4 0 01-3 7zM387 229a4 4 0 113-7 4 4 0 01-3 7zM376 229a3 3 0 116-1 3 3 0 01-6 1z" stroke-miterlimit="10" fill="#b3cce2" stroke="#000" stroke-width=".5"/>
    <circle r="3.1" cy="229.4" cx="368.6" stroke-miterlimit="10" fill="#b3cce2" stroke="#000" stroke-width=".5"/>
    <circle r="3.1" cy="227.4" cx="358.6" stroke-miterlimit="10" fill="#b3cce2" stroke="#000" stroke-width=".5"/>
    <circle r="3.1" cy="223.7" cx="350.4" stroke-miterlimit="10" fill="#b3cce2" stroke="#000" stroke-width=".5"/>
    <circle r="3.1" cy="160.9" cx="407.2" stroke-miterlimit="10" fill="#b3cce2" stroke="#000" stroke-width=".5"/>
    <path d="M413 173a3 3 0 11-3-5 3 3 0 013 5zM416 183a3 3 0 11-3-5 3 3 0 013 5zM417 192a3 3 0 11-4-5 3 3 0 014 5zM343 218a2 2 0 112 3 2 2 0 01-2-3z" stroke-miterlimit="10" fill="#b3cce2" stroke="#000" stroke-width=".5"/>
    <circle r="2.1" cy="215.2" cx="339.2" stroke-miterlimit="10" fill="#b3cce2" stroke="#000" stroke-width=".5"/>
    <circle r="2.1" cy="210.1" cx="335.6" stroke-miterlimit="10" fill="#b3cce2" stroke="#000" stroke-width=".5"/>
    <path d="M331 203a2 2 0 113 3 2 2 0 01-3-3z" stroke-miterlimit="10" fill="#b3cce2" stroke="#000" stroke-width=".5"/>
    <circle r="2.1" cy="144.7" cx="386.1" stroke-miterlimit="10" fill="#b3cce2" stroke="#000" stroke-width=".5"/>
    <circle r="2.1" cy="147" cx="392.2" stroke-miterlimit="10" fill="#b3cce2" stroke="#000" stroke-width=".5"/>
    <circle r="2.1" cy="150.4" cx="397.4" stroke-miterlimit="10" fill="#b3cce2" stroke="#000" stroke-width=".5"/>
    <circle r="2.1" cy="154.4" cx="402.2" stroke-miterlimit="10" fill="#b3cce2" stroke="#000" stroke-width=".5"/>
    <path d="M388 216a3 3 0 115-3 3 3 0 01-5 3z" stroke-miterlimit="10" fill="#b3cce2" stroke="#000" stroke-width=".5"/>
    <circle r="3.2" cy="218.9" cx="381.1" stroke-miterlimit="10" fill="#b3cce2" stroke="#000" stroke-width=".5"/>
    <path d="M368 222a3 3 0 116-3 3 3 0 01-6 3zM359 220a3 3 0 116-3 3 3 0 01-6 3zM352 214a3 3 0 114 3 3 3 0 01-4-3z" stroke-miterlimit="10" fill="#b3cce2" stroke="#000" stroke-width=".5"/>
    <circle r="2.6" cy="211.1" cx="347.1" stroke-miterlimit="10" fill="#b3cce2" stroke="#000" stroke-width=".5"/>
    <circle r="2.6" cy="204.8" cx="341.8" stroke-miterlimit="10" fill="#b3cce2" stroke="#000" stroke-width=".5"/>
    <circle r="2.6" cy="198.3" cx="338.4" stroke-miterlimit="10" fill="#b3cce2" stroke="#000" stroke-width=".5"/>
    <path d="M406 190a3 3 0 111-6 3 3 0 01-1 6zM404 198a3 3 0 111-5 3 3 0 01-1 5zM401 206l-2-3a3 3 0 112 3z" stroke-miterlimit="10" fill="#b3cce2" stroke="#000" stroke-width=".5"/>
    <circle r="2.6" cy="209" cx="397.2" stroke-miterlimit="10" fill="#b3cce2" stroke="#000" stroke-width=".5"/>
    <path d="M336 191a2 2 0 111 3 2 2 0 01-1-3z" stroke-miterlimit="10" fill="#b3cce2" stroke="#000" stroke-width=".5"/>
    <circle r="1.7" cy="187.2" cx="335.6" stroke-miterlimit="10" fill="#b3cce2" stroke="#000" stroke-width=".5"/>
    <circle r="1.7" cy="182.1" cx="335.9" stroke-miterlimit="10" fill="#b3cce2" stroke="#000" stroke-width=".5"/>
    <path d="M337 175a2 2 0 110 4 2 2 0 010-4z" stroke-miterlimit="10" fill="#b3cce2" stroke="#000" stroke-width=".5"/>
    <circle r="1.7" cy="166" cx="401.1" stroke-miterlimit="10" fill="#b3cce2" stroke="#000" stroke-width=".5"/>
    <path d="M405 172a2 2 0 11-2-3 2 2 0 012 3z" stroke-miterlimit="10" fill="#b3cce2" stroke="#000" stroke-width=".5"/>
    <circle r="1.7" cy="175.3" cx="405.4" stroke-miterlimit="10" fill="#b3cce2" stroke="#000" stroke-width=".5"/>
    <path d="M407 182l-2-1a2 2 0 112 1z" stroke-miterlimit="10" fill="#b3cce2" stroke="#000" stroke-width=".5"/>
    <circle r="2.6" cy="212.2" cx="375.8" stroke-miterlimit="10" fill="#b3cce2" stroke="#000" stroke-width=".5"/>
    <path d="M365 212a3 3 0 115 0 3 3 0 01-5 0z" stroke-miterlimit="10" fill="#b3cce2" stroke="#000" stroke-width=".5"/>
    <circle r="2.6" cy="209.9" cx="359.5" stroke-miterlimit="10" fill="#b3cce2" stroke="#000" stroke-width=".5"/>
    <circle r="2.6" cy="205.5" cx="353.3" stroke-miterlimit="10" fill="#b3cce2" stroke="#000" stroke-width=".5"/>
    <circle r="2.1" cy="200.9" cx="348.4" stroke-miterlimit="10" fill="#b3cce2" stroke="#000" stroke-width=".5"/>
    <circle r="2.1" cy="195.1" cx="344.9" stroke-miterlimit="10" fill="#b3cce2" stroke="#000" stroke-width=".5"/>
    <path d="M342 187a2 2 0 112 3 2 2 0 01-2-3zM342 181a2 2 0 112 3 2 2 0 01-2-3zM396 199a2 2 0 112-4 2 2 0 01-2 4z" stroke-miterlimit="10" fill="#b3cce2" stroke="#000" stroke-width=".5"/>
    <circle r="2.1" cy="202.4" cx="392.7" stroke-miterlimit="10" fill="#b3cce2" stroke="#000" stroke-width=".5"/>
    <circle r="2.1" cy="207.1" cx="387.8" stroke-miterlimit="10" fill="#b3cce2" stroke="#000" stroke-width=".5"/>
    <circle r="2.1" cy="210.2" cx="382.8" stroke-miterlimit="10" fill="#b3cce2" stroke="#000" stroke-width=".5"/>
    <circle r="1.4" cy="177.7" cx="343.3" stroke-miterlimit="10" fill="#b3cce2" stroke="#000" stroke-width=".5"/>
    <circle r="1.4" cy="173.6" cx="344.3" stroke-miterlimit="10" fill="#b3cce2" stroke="#000" stroke-width=".5"/>
    <circle r="1.4" cy="169.9" cx="346.2" stroke-miterlimit="10" fill="#b3cce2" stroke="#000" stroke-width=".5"/>
    <circle r="1.4" cy="166.4" cx="348.5" stroke-miterlimit="10" fill="#b3cce2" stroke="#000" stroke-width=".5"/>
    <path d="M400 181l-1-1a1 1 0 111 1z" stroke-miterlimit="10" fill="#b3cce2" stroke="#000" stroke-width=".5"/>
    <circle r="1.4" cy="183.8" cx="400.5" stroke-miterlimit="10" fill="#b3cce2" stroke="#000" stroke-width=".5"/>
    <path d="M400 189a1 1 0 110-2 1 1 0 010 2z" stroke-miterlimit="10" fill="#b3cce2" stroke="#000" stroke-width=".5"/>
    <circle r="1.4" cy="192" cx="399.2" stroke-miterlimit="10" fill="#b3cce2" stroke="#000" stroke-width=".5"/>
    <circle r="2.1" cy="203.5" cx="360.2" stroke-miterlimit="10" fill="#b3cce2" stroke="#000" stroke-width=".5"/>
    <circle r="2.1" cy="199.2" cx="354.9" stroke-miterlimit="10" fill="#b3cce2" stroke="#000" stroke-width=".5"/>
    <path d="M349 192a2 2 0 114 3 2 2 0 01-4-3zM348 187a2 2 0 113 2 2 2 0 01-3-2z" stroke-miterlimit="10" fill="#b3cce2" stroke="#000" stroke-width=".5"/>
    <circle r="1.7" cy="182.4" cx="348.4" stroke-miterlimit="10" fill="#b3cce2" stroke="#000" stroke-width=".5"/>
    <path d="M349 175a2 2 0 110 4 2 2 0 110-4zM351 170a2 2 0 110 4 2 2 0 010-4zM354 166a2 2 0 110 4 2 2 0 110-4z" stroke-miterlimit="10" fill="#b3cce2" stroke="#000" stroke-width=".5"/>
    <circle r="1.7" cy="204.4" cx="381.4" stroke-miterlimit="10" fill="#b3cce2" stroke="#000" stroke-width=".5"/>
    <circle r="1.7" cy="205.7" cx="375.9" stroke-miterlimit="10" fill="#b3cce2" stroke="#000" stroke-width=".5"/>
    <circle r="1.7" cy="206.3" cx="370.4" stroke-miterlimit="10" fill="#b3cce2" stroke="#000" stroke-width=".5"/>
    <circle r="1.7" cy="205.7" cx="365.6" stroke-miterlimit="10" fill="#b3cce2" stroke="#000" stroke-width=".5"/>
    <circle r="1.2" cy="165" cx="356.9" stroke-miterlimit="10" fill="#b3cce2" stroke="#000" stroke-width=".5"/>
    <circle r="1.2" cy="162.9" cx="359.6" stroke-miterlimit="10" fill="#b3cce2" stroke="#000" stroke-width=".5"/>
    <circle r="1.2" cy="161.5" cx="362.7" stroke-miterlimit="10" fill="#b3cce2" stroke="#000" stroke-width=".5"/>
    <path d="M367 160a1 1 0 11-2 1 1 1 0 012-1z" stroke-miterlimit="10" fill="#b3cce2" stroke="#000" stroke-width=".5"/>
    <circle r="1.2" cy="194.9" cx="392.1" stroke-miterlimit="10" fill="#b3cce2" stroke="#000" stroke-width=".5"/>
    <circle r="1.2" cy="197.8" cx="390.3" stroke-miterlimit="10" fill="#b3cce2" stroke="#000" stroke-width=".5"/>
    <path d="M387 201a1 1 0 112-2 1 1 0 01-2 2z" stroke-miterlimit="10" fill="#b3cce2" stroke="#000" stroke-width=".5"/>
    <circle r="1.2" cy="202.4" cx="385.3" stroke-miterlimit="10" fill="#b3cce2" stroke="#000" stroke-width=".5"/>
  </g>
</svg>
